ISO-10303-21;
HEADER;
FILE_DESCRIPTION (( 'STEP AP203' ),
    '1' );
FILE_NAME ('23092-E0W.STEP',
    '2013-07-24T15:25:24',
    ( 'Admin' ),
    ( 'Thorlabs, Inc.' ),
    'SwSTEP 2.0',
    'SolidWorks 2012',
    '' );
FILE_SCHEMA (( 'CONFIG_CONTROL_DESIGN' ));
ENDSEC;

DATA;
#1 = ORIENTED_EDGE ( 'NONE', *, *, #88, .F. ) ;
#2 = ORIENTED_EDGE ( 'NONE', *, *, #5, .T. ) ;
#3 = EDGE_CURVE ( 'NONE', #103, #262, #294, .T. ) ;
#4 = ADVANCED_FACE ( 'NONE', ( #346 ), #322, .T. ) ;
#5 = EDGE_CURVE ( 'NONE', #137, #34, #319, .T. ) ;
#6 = CC_DESIGN_APPROVAL ( #662, ( #665 ) ) ;
#7 = ORIENTED_EDGE ( 'NONE', *, *, #3, .F. ) ;
#8 = APPROVAL_DATE_TIME ( #656, #662 ) ;
#9 = ORIENTED_EDGE ( 'NONE', *, *, #5, .F. ) ;
#10 = ORIENTED_EDGE ( 'NONE', *, *, #12, .F. ) ;
#11 = ORIENTED_EDGE ( 'NONE', *, *, #21, .F. ) ;
#12 = EDGE_CURVE ( 'NONE', #158, #190, #280, .T. ) ;
#13 = EDGE_LOOP ( 'NONE', ( #264, #305, #266, #192 ) ) ;
#14 = EDGE_CURVE ( 'NONE', #191, #190, #316, .T. ) ;
#15 = ORIENTED_EDGE ( 'NONE', *, *, #91, .T. ) ;
#16 = ORIENTED_EDGE ( 'NONE', *, *, #36, .T. ) ;
#17 = VERTEX_POINT ( 'NONE', #320 ) ;
#18 = ORIENTED_EDGE ( 'NONE', *, *, #307, .F. ) ;
#19 = ADVANCED_FACE ( 'NONE', ( #321 ), #323, .F. ) ;
#20 = ORIENTED_EDGE ( 'NONE', *, *, #51, .T. ) ;
#21 = EDGE_CURVE ( 'NONE', #17, #155, #231, .T. ) ;
#22 = ORIENTED_EDGE ( 'NONE', *, *, #65, .F. ) ;
#23 = ORIENTED_EDGE ( 'NONE', *, *, #120, .T. ) ;
#24 = EDGE_LOOP ( 'NONE', ( #22, #11, #352, #355 ) ) ;
#25 = ORIENTED_EDGE ( 'NONE', *, *, #99, .F. ) ;
#26 = EDGE_CURVE ( 'NONE', #149, #17, #270, .T. ) ;
#27 = EDGE_LOOP ( 'NONE', ( #1, #28, #296, #23 ) ) ;
#28 = ORIENTED_EDGE ( 'NONE', *, *, #117, .F. ) ;
#29 = ORIENTED_EDGE ( 'NONE', *, *, #35, .T. ) ;
#30 = EDGE_CURVE ( 'NONE', #81, #151, #233, .T. ) ;
#31 = ADVANCED_FACE ( 'NONE', ( #275 ), #271, .T. ) ;
#32 = ORIENTED_EDGE ( 'NONE', *, *, #129, .T. ) ;
#33 = VERTEX_POINT ( 'NONE', #218 ) ;
#34 = VERTEX_POINT ( 'NONE', #217 ) ;
#35 = EDGE_CURVE ( 'NONE', #34, #137, #208, .T. ) ;
#36 = EDGE_CURVE ( 'NONE', #63, #37, #209, .T. ) ;
#37 = VERTEX_POINT ( 'NONE', #221 ) ;
#38 = EDGE_LOOP ( 'NONE', ( #52, #119, #118, #42, #127, #134, #122, #136 ) ) ;
#39 = EDGE_CURVE ( 'NONE', #48, #40, #197, .T. ) ;
#40 = VERTEX_POINT ( 'NONE', #198 ) ;
#41 = ADVANCED_FACE ( 'NONE', ( #180 ), #211, .F. ) ;
#42 = ORIENTED_EDGE ( 'NONE', *, *, #121, .F. ) ;
#43 = VERTEX_POINT ( 'NONE', #179 ) ;
#44 = EDGE_CURVE ( 'NONE', #83, #48, #173, .T. ) ;
#45 = EDGE_CURVE ( 'NONE', #89, #48, #210, .T. ) ;
#46 = ORIENTED_EDGE ( 'NONE', *, *, #44, .T. ) ;
#47 = ORIENTED_EDGE ( 'NONE', *, *, #39, .T. ) ;
#48 = VERTEX_POINT ( 'NONE', #79 ) ;
#49 = VERTEX_POINT ( 'NONE', #76 ) ;
#50 = ORIENTED_EDGE ( 'NONE', *, *, #44, .F. ) ;
#51 = EDGE_CURVE ( 'NONE', #33, #152, #154, .T. ) ;
#52 = ORIENTED_EDGE ( 'NONE', *, *, #148, .T. ) ;
#53 = ADVANCED_FACE ( 'NONE', ( #416 ), #358, .T. ) ;
#54 = ORIENTED_EDGE ( 'NONE', *, *, #55, .T. ) ;
#55 = EDGE_CURVE ( 'NONE', #33, #125, #362, .T. ) ;
#56 = EDGE_CURVE ( 'NONE', #95, #89, #465, .T. ) ;
#57 = EDGE_CURVE ( 'NONE', #87, #40, #459, .T. ) ;
#58 = EDGE_LOOP ( 'NONE', ( #59, #64, #101, #85 ) ) ;
#59 = ORIENTED_EDGE ( 'NONE', *, *, #66, .F. ) ;
#60 = AXIS2_PLACEMENT_3D ( 'NONE', #199, #176, #450 ) ;
#61 = LINE ( 'NONE', #78, #77 ) ;
#62 = ADVANCED_FACE ( 'NONE', ( #461 ), #451, .T. ) ;
#63 = VERTEX_POINT ( 'NONE', #407 ) ;
#64 = ORIENTED_EDGE ( 'NONE', *, *, #65, .T. ) ;
#65 = EDGE_CURVE ( 'NONE', #155, #153, #404, .T. ) ;
#66 = EDGE_CURVE ( 'NONE', #155, #63, #396, .T. ) ;
#67 = PERSON_AND_ORGANIZATION ( #727, #602 ) ;
#68 = SECURITY_CLASSIFICATION ( '', '', #69 ) ;
#69 = SECURITY_CLASSIFICATION_LEVEL ( 'unclassified' ) ;
#70 = CC_DESIGN_PERSON_AND_ORGANIZATION_ASSIGNMENT ( #72, #71, ( #665 ) ) ;
#71 = PERSON_AND_ORGANIZATION_ROLE ( 'design_supplier' ) ;
#72 = PERSON_AND_ORGANIZATION ( #727, #602 ) ;
#73 = CC_DESIGN_PERSON_AND_ORGANIZATION_ASSIGNMENT ( #75, #74, ( #665 ) ) ;
#74 = PERSON_AND_ORGANIZATION_ROLE ( 'creator' ) ;
#75 = PERSON_AND_ORGANIZATION ( #727, #602 ) ;
#76 = CARTESIAN_POINT ( 'NONE',  ( 0.0000000000000000000, 0.08758927072674023400, 0.03203448162953572600 ) ) ;
#77 = VECTOR ( 'NONE', #178, 39.37007874015748100 ) ;
#78 = CARTESIAN_POINT ( 'NONE',  ( -0.1082677165354330700, 0.006890937360429278200, 0.04680741562720509800 ) ) ;
#79 = CARTESIAN_POINT ( 'NONE',  ( 0.0000000000000000000, -0.1023622047244094200, 0.04680741562720509800 ) ) ;
#80 = MANIFOLD_SOLID_BREP ( 'TTN006937-1-solid1', #160 ) ;
#81 = VERTEX_POINT ( 'NONE', #399 ) ;
#82 = EDGE_LOOP ( 'NONE', ( #93, #104, #94 ) ) ;
#83 = VERTEX_POINT ( 'NONE', #406 ) ;
#84 = EDGE_LOOP ( 'NONE', ( #97, #46, #47, #98 ) ) ;
#85 = ORIENTED_EDGE ( 'NONE', *, *, #36, .F. ) ;
#86 = ORIENTED_EDGE ( 'NONE', *, *, #45, .T. ) ;
#87 = VERTEX_POINT ( 'NONE', #400 ) ;
#88 = EDGE_CURVE ( 'NONE', #49, #89, #397, .T. ) ;
#89 = VERTEX_POINT ( 'NONE', #405 ) ;
#90 = EDGE_CURVE ( 'NONE', #83, #37, #388, .T. ) ;
#91 = EDGE_CURVE ( 'NONE', #152, #34, #380, .T. ) ;
#92 = ORIENTED_EDGE ( 'NONE', *, *, #91, .F. ) ;
#93 = ORIENTED_EDGE ( 'NONE', *, *, #96, .T. ) ;
#94 = ORIENTED_EDGE ( 'NONE', *, *, #108, .F. ) ;
#95 = VERTEX_POINT ( 'NONE', #398 ) ;
#96 = EDGE_CURVE ( 'NONE', #49, #83, #375, .T. ) ;
#97 = ORIENTED_EDGE ( 'NONE', *, *, #90, .F. ) ;
#98 = ORIENTED_EDGE ( 'NONE', *, *, #99, .T. ) ;
#99 = EDGE_CURVE ( 'NONE', #40, #37, #382, .T. ) ;
#100 = EDGE_LOOP ( 'NONE', ( #132, #131, #86, #50 ) ) ;
#101 = ORIENTED_EDGE ( 'NONE', *, *, #133, .F. ) ;
#102 = VERTEX_POINT ( 'NONE', #373 ) ;
#103 = VERTEX_POINT ( 'NONE', #368 ) ;
#104 = ORIENTED_EDGE ( 'NONE', *, *, #106, .T. ) ;
#105 = ADVANCED_FACE ( 'NONE', ( #427 ), #376, .T. ) ;
#106 = EDGE_CURVE ( 'NONE', #83, #102, #422, .T. ) ;
#107 = EDGE_LOOP ( 'NONE', ( #110, #20, #349 ) ) ;
#108 = EDGE_CURVE ( 'NONE', #49, #102, #423, .T. ) ;
#109 = ORIENTED_EDGE ( 'NONE', *, *, #117, .T. ) ;
#110 = ORIENTED_EDGE ( 'NONE', *, *, #55, .F. ) ;
#111 = ADVANCED_FACE ( 'NONE', ( #372 ), #428, .T. ) ;
#112 = ORIENTED_EDGE ( 'NONE', *, *, #133, .T. ) ;
#113 = ORIENTED_EDGE ( 'NONE', *, *, #106, .F. ) ;
#114 = ORIENTED_EDGE ( 'NONE', *, *, #90, .T. ) ;
#115 = EDGE_CURVE ( 'NONE', #153, #81, #413, .T. ) ;
#116 = ORIENTED_EDGE ( 'NONE', *, *, #115, .T. ) ;
#117 = EDGE_CURVE ( 'NONE', #81, #49, #477, .T. ) ;
#118 = ORIENTED_EDGE ( 'NONE', *, *, #120, .F. ) ;
#119 = ORIENTED_EDGE ( 'NONE', *, *, #56, .T. ) ;
#120 = EDGE_CURVE ( 'NONE', #151, #89, #466, .T. ) ;
#121 = EDGE_CURVE ( 'NONE', #149, #151, #444, .T. ) ;
#122 = ORIENTED_EDGE ( 'NONE', *, *, #39, .F. ) ;
#123 = EDGE_LOOP ( 'NONE', ( #142, #141, #139, #92 ) ) ;
#124 = EDGE_CURVE ( 'NONE', #87, #149, #467, .T. ) ;
#125 = VERTEX_POINT ( 'NONE', #440 ) ;
#126 = EDGE_LOOP ( 'NONE', ( #128, #54, #135 ) ) ;
#127 = ORIENTED_EDGE ( 'NONE', *, *, #124, .F. ) ;
#128 = ORIENTED_EDGE ( 'NONE', *, *, #51, .F. ) ;
#129 = EDGE_CURVE ( 'NONE', #43, #48, #168, .T. ) ;
#130 = ADVANCED_FACE ( 'NONE', ( #433 ), #546, .F. ) ;
#131 = ORIENTED_EDGE ( 'NONE', *, *, #88, .T. ) ;
#132 = ORIENTED_EDGE ( 'NONE', *, *, #96, .F. ) ;
#133 = EDGE_CURVE ( 'NONE', #37, #153, #553, .T. ) ;
#134 = ORIENTED_EDGE ( 'NONE', *, *, #57, .T. ) ;
#135 = ORIENTED_EDGE ( 'NONE', *, *, #144, .F. ) ;
#136 = ORIENTED_EDGE ( 'NONE', *, *, #129, .F. ) ;
#137 = VERTEX_POINT ( 'NONE', #508 ) ;
#138 = EDGE_LOOP ( 'NONE', ( #113, #114, #112, #116, #109, #145 ) ) ;
#139 = ORIENTED_EDGE ( 'NONE', *, *, #35, .F. ) ;
#140 = ADVANCED_FACE ( 'NONE', ( #561 ), #554, .F. ) ;
#141 = ORIENTED_EDGE ( 'NONE', *, *, #143, .T. ) ;
#142 = ORIENTED_EDGE ( 'NONE', *, *, #144, .T. ) ;
#143 = EDGE_CURVE ( 'NONE', #125, #137, #536, .T. ) ;
#144 = EDGE_CURVE ( 'NONE', #152, #125, #509, .T. ) ;
#145 = ORIENTED_EDGE ( 'NONE', *, *, #108, .T. ) ;
#146 = ADVANCED_FACE ( 'NONE', ( #539 ), #531, .T. ) ;
#147 = ORIENTED_EDGE ( 'NONE', *, *, #289, .F. ) ;
#148 = EDGE_CURVE ( 'NONE', #43, #95, #523, .T. ) ;
#149 = VERTEX_POINT ( 'NONE', #530 ) ;
#150 = ADVANCED_FACE ( 'NONE', ( #516 ), #525, .T. ) ;
#151 = VERTEX_POINT ( 'NONE', #517 ) ;
#152 = VERTEX_POINT ( 'NONE', #513 ) ;
#153 = VERTEX_POINT ( 'NONE', #515 ) ;
#154 = CIRCLE ( 'NONE', #60, 1.968503937007874100 ) ;
#155 = VERTEX_POINT ( 'NONE', #526 ) ;
#156 = EDGE_CURVE ( 'NONE', #262, #158, #567, .T. ) ;
#157 = EDGE_LOOP ( 'NONE', ( #304, #187, #193, #10 ) ) ;
#158 = VERTEX_POINT ( 'NONE', #568 ) ;
#159 = ORIENTED_EDGE ( 'NONE', *, *, #30, .F. ) ;
#160 = CLOSED_SHELL ( 'NONE', ( #62, #130, #41, #150, #140, #53, #105, #111, #146, #298, #300, #31, #311, #19, #261, #306, #350 ) ) ;
#161 = AXIS2_PLACEMENT_3D ( 'NONE', #236, #235, #234 ) ;
#162 = DIRECTION ( 'NONE',  ( 0.0000000000000000000, -1.000000000000000000, 0.0000000000000000000 ) ) ;
#163 = DIRECTION ( 'NONE',  ( -0.0000000000000000000, 5.731934358295344300E-032, 1.000000000000000000 ) ) ;
#164 = CARTESIAN_POINT ( 'NONE',  ( 0.0000000000000000000, 9.112529332238177600E-018, 0.04680741562720509800 ) ) ;
#165 = DIRECTION ( 'NONE',  ( -0.0000000000000000000, 5.731934358295344300E-032, 1.000000000000000000 ) ) ;
#166 = VECTOR ( 'NONE', #165, 39.37007874015748100 ) ;
#167 = CARTESIAN_POINT ( 'NONE',  ( 0.0000000000000000000, -0.1023622047244094200, 0.04960629921259843100 ) ) ;
#168 = LINE ( 'NONE', #167, #166 ) ;
#169 = DIRECTION ( 'NONE',  ( 0.0000000000000000000, -0.7071067811865430200, 0.7071067811865520100 ) ) ;
#170 = VECTOR ( 'NONE', #169, 39.37007874015748100 ) ;
#171 = CARTESIAN_POINT ( 'NONE',  ( 0.0000000000000000000, -0.1023622047244094200, 0.04680741562720509800 ) ) ;
#172 = DIRECTION ( 'NONE',  ( 0.0000000000000000000, -1.000000000000000000, 0.0000000000000000000 ) ) ;
#173 = LINE ( 'NONE', #171, #170 ) ;
#174 = AXIS2_PLACEMENT_3D ( 'NONE', #164, #163, #162 ) ;
#175 = PERSON_AND_ORGANIZATION_ROLE ( 'classification_officer' ) ;
#176 = DIRECTION ( 'NONE',  ( 1.000000000000000000, 0.0000000000000000000, 0.0000000000000000000 ) ) ;
#177 = DIRECTION ( 'NONE',  ( -0.0000000000000000000, 5.731934358295344300E-032, 1.000000000000000000 ) ) ;
#178 = DIRECTION ( 'NONE',  ( 1.000000000000000000, 0.0000000000000000000, 0.0000000000000000000 ) ) ;
#179 = CARTESIAN_POINT ( 'NONE',  ( 0.0000000000000000000, -0.1023622047244094200, -0.05240518279799175800 ) ) ;
#180 = FACE_OUTER_BOUND ( 'NONE', #84, .T. ) ;
#181 = DIRECTION ( 'NONE',  ( 0.0000000000000000000, -1.000000000000000000, 0.0000000000000000000 ) ) ;
#182 = DIRECTION ( 'NONE',  ( -0.0000000000000000000, 5.731934358295344300E-032, 1.000000000000000000 ) ) ;
#183 = CARTESIAN_POINT ( 'NONE',  ( 0.0000000000000000000, 9.112529332238177600E-018, 0.04680741562720509800 ) ) ;
#184 = ORIENTED_EDGE ( 'NONE', *, *, #121, .T. ) ;
#185 = EDGE_LOOP ( 'NONE', ( #310, #357, #184, #159 ) ) ;
#186 = EDGE_LOOP ( 'NONE', ( #257, #259, #15, #9 ) ) ;
#187 = ORIENTED_EDGE ( 'NONE', *, *, #303, .T. ) ;
#188 = ORIENTED_EDGE ( 'NONE', *, *, #301, .T. ) ;
#189 = EDGE_CURVE ( 'NONE', #347, #262, #571, .T. ) ;
#190 = VERTEX_POINT ( 'NONE', #522 ) ;
#191 = VERTEX_POINT ( 'NONE', #569 ) ;
#192 = ORIENTED_EDGE ( 'NONE', *, *, #189, .F. ) ;
#193 = ORIENTED_EDGE ( 'NONE', *, *, #14, .T. ) ;
#194 = EDGE_LOOP ( 'NONE', ( #348, #188, #32, #309 ) ) ;
#195 = EDGE_CURVE ( 'NONE', #125, #152, #503, .T. ) ;
#196 = EDGE_LOOP ( 'NONE', ( #308, #18, #16, #25 ) ) ;
#197 = CIRCLE ( 'NONE', #203, 0.1023622047244094300 ) ;
#198 = CARTESIAN_POINT ( 'NONE',  ( 0.07238100909783563900, -0.07238100909783548600, 0.04680741562720511900 ) ) ;
#199 = CARTESIAN_POINT ( 'NONE',  ( 0.0000000000000000000, 0.0000000000000000000, 1.918897637795275800 ) ) ;
#200 = DIRECTION ( 'NONE',  ( -0.0000000000000000000, -0.0000000000000000000, 1.000000000000000000 ) ) ;
#201 = VECTOR ( 'NONE', #200, 39.37007874015748100 ) ;
#202 = CARTESIAN_POINT ( 'NONE',  ( 0.06193496729006240500, -0.06193496729006229400, 0.03149606299212598400 ) ) ;
#203 = AXIS2_PLACEMENT_3D ( 'NONE', #204, #182, #181 ) ;
#204 = CARTESIAN_POINT ( 'NONE',  ( 0.0000000000000000000, 9.112529332238177600E-018, 0.04680741562720509800 ) ) ;
#205 = DIRECTION ( 'NONE',  ( 0.0000000000000000000, -1.000000000000000000, 0.0000000000000000000 ) ) ;
#206 = DIRECTION ( 'NONE',  ( -0.0000000000000000000, 5.731934358295344300E-032, 1.000000000000000000 ) ) ;
#207 = CARTESIAN_POINT ( 'NONE',  ( 0.0000000000000000000, 9.112529332238173000E-018, -0.05240518279799175800 ) ) ;
#208 = CIRCLE ( 'NONE', #214, 0.07086614173228350500 ) ;
#209 = LINE ( 'NONE', #202, #201 ) ;
#210 = CIRCLE ( 'NONE', #174, 0.1023622047244094300 ) ;
#211 = CONICAL_SURFACE ( 'NONE', #213, 0.1023622047244094300, 0.7853981633974419500 ) ;
#212 = DIRECTION ( 'NONE',  ( 0.0000000000000000000, -1.000000000000000000, 0.0000000000000000000 ) ) ;
#213 = AXIS2_PLACEMENT_3D ( 'NONE', #183, #177, #172 ) ;
#214 = AXIS2_PLACEMENT_3D ( 'NONE', #207, #206, #205 ) ;
#215 = DIRECTION ( 'NONE',  ( 0.4999999999999958400, 0.4999999999999977200, 0.7071067811865520100 ) ) ;
#216 = VECTOR ( 'NONE', #215, 39.37007874015748100 ) ;
#217 = CARTESIAN_POINT ( 'NONE',  ( 0.0000000000000000000, 0.07086614173228351900, -0.05240518279799175800 ) ) ;
#218 = CARTESIAN_POINT ( 'NONE',  ( 0.0000000000000000000, 1.205361022782826700E-016, -0.04960629921259832000 ) ) ;
#219 = ORIENTED_EDGE ( 'NONE', *, *, #21, .T. ) ;
#220 = ORIENTED_EDGE ( 'NONE', *, *, #124, .T. ) ;
#221 = CARTESIAN_POINT ( 'NONE',  ( 0.06193496729006240500, -0.06193496729006229400, 0.03203448162953592000 ) ) ;
#222 = CARTESIAN_POINT ( 'NONE',  ( 0.0000000000000000000, 9.112529332238177600E-018, 0.04960629921259843100 ) ) ;
#223 = DIRECTION ( 'NONE',  ( -0.7071067811865460200, -0.7071067811865489100, 0.0000000000000000000 ) ) ;
#224 = VECTOR ( 'NONE', #223, 39.37007874015748900 ) ;
#225 = CARTESIAN_POINT ( 'NONE',  ( 0.07238100909783543000, 0.07238100909783568000, 0.03149606299212598400 ) ) ;
#226 = AXIS2_PLACEMENT_3D ( 'NONE', #222, #269, #212 ) ;
#227 = DIRECTION ( 'NONE',  ( 1.000000000000000000, 0.0000000000000000000, 0.0000000000000000000 ) ) ;
#228 = DIRECTION ( 'NONE',  ( -0.0000000000000000000, -0.0000000000000000000, -1.000000000000000000 ) ) ;
#229 = CARTESIAN_POINT ( 'NONE',  ( -3.244069492476312400E-016, 1.707404996040113100E-017, 0.03149606299212598400 ) ) ;
#230 = AXIS2_PLACEMENT_3D ( 'NONE', #229, #228, #227 ) ;
#231 = CIRCLE ( 'NONE', #230, 0.08758927072674044200 ) ;
#232 = CARTESIAN_POINT ( 'NONE',  ( 1.810976476397689600E-017, -8.997235431738650800E-018, -0.05555478909720562600 ) ) ;
#233 = LINE ( 'NONE', #232, #216 ) ;
#234 = DIRECTION ( 'NONE',  ( 0.7071067811865476800, -0.7071067811865472400, 0.0000000000000000000 ) ) ;
#235 = DIRECTION ( 'NONE',  ( -0.7071067811865473500, -0.7071067811865477900, 0.0000000000000000000 ) ) ;
#236 = CARTESIAN_POINT ( 'NONE',  ( 0.06193496729006244700, -0.06193496729006228700, 0.03149606299212598400 ) ) ;
#237 = EDGE_LOOP ( 'NONE', ( #238, #284, #286, #336 ) ) ;
#238 = ORIENTED_EDGE ( 'NONE', *, *, #245, .F. ) ;
#239 = EDGE_CURVE ( 'NONE', #333, #347, #500, .T. ) ;
#240 = ORIENTED_EDGE ( 'NONE', *, *, #256, .F. ) ;
#241 = EDGE_CURVE ( 'NONE', #191, #285, #492, .T. ) ;
#242 = ADVANCED_FACE ( 'NONE', ( #495 ), #488, .T. ) ;
#243 = EDGE_CURVE ( 'NONE', #285, #333, #483, .T. ) ;
#244 = EDGE_LOOP ( 'NONE', ( #240, #252, #335, #251, #254 ) ) ;
#245 = EDGE_CURVE ( 'NONE', #190, #288, #485, .T. ) ;
#246 = ADVANCED_FACE ( 'NONE', ( #545 ), #484, .F. ) ;
#247 = ORIENTED_EDGE ( 'NONE', *, *, #3, .T. ) ;
#248 = ORIENTED_EDGE ( 'NONE', *, *, #156, .T. ) ;
#249 = ORIENTED_EDGE ( 'NONE', *, *, #341, .F. ) ;
#250 = EDGE_CURVE ( 'NONE', #285, #288, #61, .T. ) ;
#251 = ORIENTED_EDGE ( 'NONE', *, *, #241, .F. ) ;
#252 = ORIENTED_EDGE ( 'NONE', *, *, #239, .F. ) ;
#253 = ADVANCED_FACE ( 'NONE', ( #599 ), #702, .T. ) ;
#254 = ORIENTED_EDGE ( 'NONE', *, *, #303, .F. ) ;
#255 = VERTEX_POINT ( 'NONE', #703 ) ;
#256 = EDGE_CURVE ( 'NONE', #347, #255, #704, .T. ) ;
#257 = ORIENTED_EDGE ( 'NONE', *, *, #143, .F. ) ;
#258 = ORIENTED_EDGE ( 'NONE', *, *, #148, .F. ) ;
#259 = ORIENTED_EDGE ( 'NONE', *, *, #195, .T. ) ;
#260 = EDGE_LOOP ( 'NONE', ( #258, #299 ) ) ;
#261 = ADVANCED_FACE ( 'NONE', ( #600 ), #677, .T. ) ;
#262 = VERTEX_POINT ( 'NONE', #612 ) ;
#263 = ORIENTED_EDGE ( 'NONE', *, *, #307, .T. ) ;
#264 = ORIENTED_EDGE ( 'NONE', *, *, #256, .T. ) ;
#265 = MANIFOLD_SOLID_BREP ( 'TTN006937-1-solid2', #343 ) ;
#266 = ORIENTED_EDGE ( 'NONE', *, *, #156, .F. ) ;
#267 = ADVANCED_FACE ( 'NONE', ( #654 ), #650, .T. ) ;
#268 = ORIENTED_EDGE ( 'NONE', *, *, #66, .T. ) ;
#269 = DIRECTION ( 'NONE',  ( -0.0000000000000000000, 5.731934358295344300E-032, 1.000000000000000000 ) ) ;
#270 = LINE ( 'NONE', #225, #224 ) ;
#271 = CYLINDRICAL_SURFACE ( 'NONE', #226, 0.1023622047244094300 ) ;
#272 = DIRECTION ( 'NONE',  ( 1.000000000000000000, 0.0000000000000000000, 0.0000000000000000000 ) ) ;
#273 = VECTOR ( 'NONE', #272, 39.37007874015748100 ) ;
#274 = CARTESIAN_POINT ( 'NONE',  ( -0.1082677165354330700, 0.006890937360429276500, 0.03607289140996838800 ) ) ;
#275 = FACE_OUTER_BOUND ( 'NONE', #194, .T. ) ;
#276 = DIRECTION ( 'NONE',  ( 0.0000000000000000000, 0.0000000000000000000, 1.000000000000000000 ) ) ;
#277 = DIRECTION ( 'NONE',  ( 1.000000000000000000, -0.0000000000000000000, -0.0000000000000000000 ) ) ;
#278 = CARTESIAN_POINT ( 'NONE',  ( -0.1023622047244094500, 0.0000000000000000000, 0.03607289140996838800 ) ) ;
#279 = AXIS2_PLACEMENT_3D ( 'NONE', #278, #277, #276 ) ;
#280 = CIRCLE ( 'NONE', #279, 0.006890937360429273900 ) ;
#281 = EDGE_LOOP ( 'NONE', ( #248, #337, #287, #282, #247 ) ) ;
#282 = ORIENTED_EDGE ( 'NONE', *, *, #341, .T. ) ;
#283 = ORIENTED_EDGE ( 'NONE', *, *, #243, .T. ) ;
#284 = ORIENTED_EDGE ( 'NONE', *, *, #14, .F. ) ;
#285 = VERTEX_POINT ( 'NONE', #595 ) ;
#286 = ORIENTED_EDGE ( 'NONE', *, *, #241, .T. ) ;
#287 = ORIENTED_EDGE ( 'NONE', *, *, #245, .T. ) ;
#288 = VERTEX_POINT ( 'NONE', #716 ) ;
#289 = EDGE_CURVE ( 'NONE', #333, #103, #589, .T. ) ;
#290 = EDGE_CURVE ( 'NONE', #255, #158, #619, .T. ) ;
#291 = DIRECTION ( 'NONE',  ( 0.0000000000000000000, 9.941084494565552500E-017, -1.000000000000000000 ) ) ;
#292 = VECTOR ( 'NONE', #291, 39.37007874015748100 ) ;
#293 = CARTESIAN_POINT ( 'NONE',  ( -0.1023622047244094500, -0.006890937360429278200, 0.04680741562720509800 ) ) ;
#294 = LINE ( 'NONE', #293, #292 ) ;
#295 = AXIS2_PLACEMENT_3D ( 'NONE', #344, #318, #317 ) ;
#296 = ORIENTED_EDGE ( 'NONE', *, *, #30, .T. ) ;
#297 = EDGE_LOOP ( 'NONE', ( #29, #2 ) ) ;
#298 = ADVANCED_FACE ( 'NONE', ( #591 ), #613, .F. ) ;
#299 = ORIENTED_EDGE ( 'NONE', *, *, #301, .F. ) ;
#300 = ADVANCED_FACE ( 'NONE', ( #620, #598 ), #647, .F. ) ;
#301 = EDGE_CURVE ( 'NONE', #95, #43, #632, .T. ) ;
#302 = ADVANCED_FACE ( 'NONE', ( #707 ), #655, .T. ) ;
#303 = EDGE_CURVE ( 'NONE', #255, #191, #580, .T. ) ;
#304 = ORIENTED_EDGE ( 'NONE', *, *, #290, .F. ) ;
#305 = ORIENTED_EDGE ( 'NONE', *, *, #290, .T. ) ;
#306 = ADVANCED_FACE ( 'NONE', ( #581 ), #648, .F. ) ;
#307 = EDGE_CURVE ( 'NONE', #63, #87, #576, .T. ) ;
#308 = ORIENTED_EDGE ( 'NONE', *, *, #57, .F. ) ;
#309 = ORIENTED_EDGE ( 'NONE', *, *, #45, .F. ) ;
#310 = ORIENTED_EDGE ( 'NONE', *, *, #353, .F. ) ;
#311 = ADVANCED_FACE ( 'NONE', ( #705 ), #614, .F. ) ;
#312 = DIRECTION ( 'NONE',  ( 0.0000000000000000000, -1.000000000000000000, 0.0000000000000000000 ) ) ;
#313 = DIRECTION ( 'NONE',  ( -0.0000000000000000000, 5.731934358295344300E-032, 1.000000000000000000 ) ) ;
#314 = CARTESIAN_POINT ( 'NONE',  ( 0.0000000000000000000, 9.112529332238173000E-018, -0.05240518279799175800 ) ) ;
#315 = AXIS2_PLACEMENT_3D ( 'NONE', #314, #313, #312 ) ;
#316 = LINE ( 'NONE', #274, #273 ) ;
#317 = DIRECTION ( 'NONE',  ( 0.0000000000000000000, 9.941084494565552500E-017, -1.000000000000000000 ) ) ;
#318 = DIRECTION ( 'NONE',  ( 0.0000000000000000000, -1.000000000000000000, -9.941084494565552500E-017 ) ) ;
#319 = CIRCLE ( 'NONE', #315, 0.07086614173228350500 ) ;
#320 = CARTESIAN_POINT ( 'NONE',  ( 0.06193496729006226600, 0.06193496729006247500, 0.03149606299212598400 ) ) ;
#321 = FACE_OUTER_BOUND ( 'NONE', #196, .T. ) ;
#322 = PLANE ( 'NONE',  #295 ) ;
#323 = PLANE ( 'NONE',  #161 ) ;
#324 = APPROVAL_STATUS ( 'not_yet_approved' ) ;
#325 = PERSON_AND_ORGANIZATION ( #727, #602 ) ;
#326 = CC_DESIGN_DATE_AND_TIME_ASSIGNMENT ( #328, #327, ( #68 ) ) ;
#327 = DATE_TIME_ROLE ( 'classification_date' ) ;
#328 = DATE_AND_TIME ( #329, #330 ) ;
#329 = CALENDAR_DATE ( 2013, 24, 7 ) ;
#330 = LOCAL_TIME ( 11, 25, 24.00000000000000000, #331 ) ;
#331 = COORDINATED_UNIVERSAL_TIME_OFFSET ( 5, 0, .BEHIND. ) ;
#332 = CC_DESIGN_PERSON_AND_ORGANIZATION_ASSIGNMENT ( #67, #175, ( #68 ) ) ;
#333 = VERTEX_POINT ( 'NONE', #724 ) ;
#334 = ORIENTED_EDGE ( 'NONE', *, *, #189, .T. ) ;
#335 = ORIENTED_EDGE ( 'NONE', *, *, #243, .F. ) ;
#336 = ORIENTED_EDGE ( 'NONE', *, *, #250, .T. ) ;
#337 = ORIENTED_EDGE ( 'NONE', *, *, #12, .T. ) ;
#338 = EDGE_LOOP ( 'NONE', ( #249, #340, #283, #342 ) ) ;
#339 = ADVANCED_FACE ( 'NONE', ( #610 ), #720, .T. ) ;
#340 = ORIENTED_EDGE ( 'NONE', *, *, #250, .F. ) ;
#341 = EDGE_CURVE ( 'NONE', #288, #103, #607, .T. ) ;
#342 = ORIENTED_EDGE ( 'NONE', *, *, #289, .T. ) ;
#343 = CLOSED_SHELL ( 'NONE', ( #267, #302, #4, #339, #242, #253, #246 ) ) ;
#344 = CARTESIAN_POINT ( 'NONE',  ( -0.1082677165354330700, -0.006890937360429278200, 0.04680741562720509800 ) ) ;
#345 = ORIENTED_EDGE ( 'NONE', *, *, #239, .T. ) ;
#346 = FACE_OUTER_BOUND ( 'NONE', #354, .T. ) ;
#347 = VERTEX_POINT ( 'NONE', #721 ) ;
#348 = ORIENTED_EDGE ( 'NONE', *, *, #56, .F. ) ;
#349 = ORIENTED_EDGE ( 'NONE', *, *, #195, .F. ) ;
#350 = ADVANCED_FACE ( 'NONE', ( #603 ), #672, .F. ) ;
#351 = ORIENTED_EDGE ( 'NONE', *, *, #26, .T. ) ;
#352 = ORIENTED_EDGE ( 'NONE', *, *, #353, .T. ) ;
#353 = EDGE_CURVE ( 'NONE', #17, #81, #671, .T. ) ;
#354 = EDGE_LOOP ( 'NONE', ( #7, #147, #345, #334 ) ) ;
#355 = ORIENTED_EDGE ( 'NONE', *, *, #115, .F. ) ;
#356 = EDGE_LOOP ( 'NONE', ( #220, #351, #219, #268, #263 ) ) ;
#357 = ORIENTED_EDGE ( 'NONE', *, *, #26, .F. ) ;
#358 = SPHERICAL_SURFACE ( 'NONE', #417, 1.968503937007874100 ) ;
#359 = DIRECTION ( 'NONE',  ( -1.224646799147353200E-016, -1.000000000000000000, 0.0000000000000000000 ) ) ;
#360 = DIRECTION ( 'NONE',  ( -1.000000000000000000, 1.224646799147353200E-016, -7.019595064809131200E-048 ) ) ;
#361 = CARTESIAN_POINT ( 'NONE',  ( 0.0000000000000000000, 0.0000000000000000000, 1.918897637795275800 ) ) ;
#362 = CIRCLE ( 'NONE', #365, 1.968503937007874100 ) ;
#363 = DIRECTION ( 'NONE',  ( 0.0000000000000000000, 1.000000000000000000, 0.0000000000000000000 ) ) ;
#364 = DIRECTION ( 'NONE',  ( -1.000000000000000000, 0.0000000000000000000, 0.0000000000000000000 ) ) ;
#365 = AXIS2_PLACEMENT_3D ( 'NONE', #361, #360, #359 ) ;
#366 = DIRECTION ( 'NONE',  ( -0.4999999999999970000, 0.4999999999999966700, -0.7071067811865520100 ) ) ;
#367 = VECTOR ( 'NONE', #366, 39.37007874015748100 ) ;
#368 = CARTESIAN_POINT ( 'NONE',  ( -0.1023622047244094500, -0.006890937360429278200, 0.04680741562720509800 ) ) ;
#369 = CARTESIAN_POINT ( 'NONE',  ( 0.0000000000000000000, -3.260260494422990200E-017, -0.1774803149606298800 ) ) ;
#370 = DIRECTION ( 'NONE',  ( 0.0000000000000000000, -1.000000000000000000, 0.0000000000000000000 ) ) ;
#371 = AXIS2_PLACEMENT_3D ( 'NONE', #374, #425, #424 ) ;
#372 = FACE_OUTER_BOUND ( 'NONE', #138, .T. ) ;
#373 = CARTESIAN_POINT ( 'NONE',  ( 0.0000000000000000000, -1.869756018540719200E-017, 0.04960629921259841800 ) ) ;
#374 = CARTESIAN_POINT ( 'NONE',  ( 0.0000000000000000000, -3.260260494422990200E-017, -0.1774803149606298800 ) ) ;
#375 = CIRCLE ( 'NONE', #452, 0.08758927072674022000 ) ;
#376 = SPHERICAL_SURFACE ( 'NONE', #371, 0.2270866141732283100 ) ;
#377 = DIRECTION ( 'NONE',  ( 0.0000000000000000000, 0.7071067811865505700, -0.7071067811865444600 ) ) ;
#378 = VECTOR ( 'NONE', #377, 39.37007874015748100 ) ;
#379 = CARTESIAN_POINT ( 'NONE',  ( 0.0000000000000000000, 0.06692913385826772300, -0.04846817492397599600 ) ) ;
#380 = LINE ( 'NONE', #379, #378 ) ;
#381 = CARTESIAN_POINT ( 'NONE',  ( 5.432929429193056500E-017, 6.344182362416877800E-017, -0.05555478909720562600 ) ) ;
#382 = LINE ( 'NONE', #381, #367 ) ;
#383 = DIRECTION ( 'NONE',  ( -0.0000000000000000000, 5.731934358295344300E-032, 1.000000000000000000 ) ) ;
#384 = DIRECTION ( 'NONE',  ( 0.0000000000000000000, -1.000000000000000000, 0.0000000000000000000 ) ) ;
#385 = DIRECTION ( 'NONE',  ( -0.0000000000000000000, 5.731934358295344300E-032, 1.000000000000000000 ) ) ;
#386 = CARTESIAN_POINT ( 'NONE',  ( 0.0000000000000000000, 9.112529332238176000E-018, 0.03203448162953569800 ) ) ;
#387 = AXIS2_PLACEMENT_3D ( 'NONE', #386, #385, #384 ) ;
#388 = CIRCLE ( 'NONE', #387, 0.08758927072674022000 ) ;
#389 = DIRECTION ( 'NONE',  ( 8.659560562354877400E-017, 0.7071067811865430200, 0.7071067811865520100 ) ) ;
#390 = VECTOR ( 'NONE', #389, 39.37007874015748100 ) ;
#391 = CARTESIAN_POINT ( 'NONE',  ( 1.253575463694140800E-017, 0.1023622047244094500, 0.04680741562720509800 ) ) ;
#392 = AXIS2_PLACEMENT_3D ( 'NONE', #421, #420, #419 ) ;
#393 = CARTESIAN_POINT ( 'NONE',  ( 0.0000000000000000000, 9.112529332238176000E-018, 0.03203448162953569800 ) ) ;
#394 = DIRECTION ( 'NONE',  ( 1.000000000000000000, 0.0000000000000000000, 0.0000000000000000000 ) ) ;
#395 = DIRECTION ( 'NONE',  ( -0.0000000000000000000, -0.0000000000000000000, -1.000000000000000000 ) ) ;
#396 = CIRCLE ( 'NONE', #457, 0.08758927072674044200 ) ;
#397 = LINE ( 'NONE', #391, #390 ) ;
#398 = CARTESIAN_POINT ( 'NONE',  ( 1.253575463694140800E-017, 0.1023622047244094500, -0.05240518279799175800 ) ) ;
#399 = CARTESIAN_POINT ( 'NONE',  ( 0.06193496729006225900, 0.06193496729006246100, 0.03203448162953568400 ) ) ;
#400 = CARTESIAN_POINT ( 'NONE',  ( 0.07238100909783565200, -0.07238100909783547200, 0.03149606299212598400 ) ) ;
#401 = DIRECTION ( 'NONE',  ( -0.0000000000000000000, -0.0000000000000000000, 1.000000000000000000 ) ) ;
#402 = VECTOR ( 'NONE', #401, 39.37007874015748100 ) ;
#403 = CARTESIAN_POINT ( 'NONE',  ( 0.08758927072674010900, 1.707404996040113100E-017, 0.03149606299212598400 ) ) ;
#404 = LINE ( 'NONE', #403, #402 ) ;
#405 = CARTESIAN_POINT ( 'NONE',  ( 1.253575463694140800E-017, 0.1023622047244094500, 0.04680741562720509800 ) ) ;
#406 = CARTESIAN_POINT ( 'NONE',  ( -1.072659200351533600E-017, -0.08758927072674024800, 0.03203448162953572600 ) ) ;
#407 = CARTESIAN_POINT ( 'NONE',  ( 0.06193496729006240500, -0.06193496729006229400, 0.03149606299212598400 ) ) ;
#408 = DIRECTION ( 'NONE',  ( 1.000000000000000000, 0.0000000000000000000, 0.0000000000000000000 ) ) ;
#409 = DIRECTION ( 'NONE',  ( 0.0000000000000000000, 0.0000000000000000000, -1.000000000000000000 ) ) ;
#410 = DIRECTION ( 'NONE',  ( 1.000000000000000000, 0.0000000000000000000, 0.0000000000000000000 ) ) ;
#411 = CARTESIAN_POINT ( 'NONE',  ( 0.0000000000000000000, -3.260260494422990200E-017, -0.1774803149606298800 ) ) ;
#412 = AXIS2_PLACEMENT_3D ( 'NONE', #411, #479, #478 ) ;
#413 = CIRCLE ( 'NONE', #476, 0.08758927072674022000 ) ;
#414 = APPROVAL ( #324, 'UNSPECIFIED' ) ;
#415 = AXIS2_PLACEMENT_3D ( 'NONE', #472, #471, #470 ) ;
#416 = FACE_OUTER_BOUND ( 'NONE', #126, .T. ) ;
#417 = AXIS2_PLACEMENT_3D ( 'NONE', #418, #364, #363 ) ;
#418 = CARTESIAN_POINT ( 'NONE',  ( 0.0000000000000000000, 0.0000000000000000000, 1.918897637795275800 ) ) ;
#419 = DIRECTION ( 'NONE',  ( -1.224646799147353200E-016, -1.000000000000000000, 0.0000000000000000000 ) ) ;
#420 = DIRECTION ( 'NONE',  ( -1.000000000000000000, 1.224646799147353200E-016, -7.019595064809131200E-048 ) ) ;
#421 = CARTESIAN_POINT ( 'NONE',  ( 0.0000000000000000000, -3.260260494422990200E-017, -0.1774803149606298800 ) ) ;
#422 = CIRCLE ( 'NONE', #392, 0.2270866141732283100 ) ;
#423 = CIRCLE ( 'NONE', #426, 0.2270866141732282900 ) ;
#424 = DIRECTION ( 'NONE',  ( 0.0000000000000000000, 1.000000000000000000, 0.0000000000000000000 ) ) ;
#425 = DIRECTION ( 'NONE',  ( -1.000000000000000000, 0.0000000000000000000, 0.0000000000000000000 ) ) ;
#426 = AXIS2_PLACEMENT_3D ( 'NONE', #369, #410, #409 ) ;
#427 = FACE_OUTER_BOUND ( 'NONE', #82, .T. ) ;
#428 = SPHERICAL_SURFACE ( 'NONE', #412, 0.2270866141732283100 ) ;
#429 = AXIS2_PLACEMENT_3D ( 'NONE', #454, #453, #408 ) ;
#430 = APPROVAL_DATE_TIME ( #431, #414 ) ;
#431 = DATE_AND_TIME ( #432, #434 ) ;
#432 = CALENDAR_DATE ( 2013, 24, 7 ) ;
#433 = FACE_OUTER_BOUND ( 'NONE', #100, .T. ) ;
#434 = LOCAL_TIME ( 11, 25, 24.00000000000000000, #435 ) ;
#435 = COORDINATED_UNIVERSAL_TIME_OFFSET ( 5, 0, .BEHIND. ) ;
#436 = DIRECTION ( 'NONE',  ( -1.000000000000000000, 0.0000000000000000000, 0.0000000000000000000 ) ) ;
#437 = DIRECTION ( 'NONE',  ( 0.0000000000000000000, 0.0000000000000000000, 1.000000000000000000 ) ) ;
#438 = CARTESIAN_POINT ( 'NONE',  ( -2.561107494060246800E-017, -4.268512490100411300E-018, 0.03149606299212598400 ) ) ;
#439 = CC_DESIGN_APPROVAL ( #414, ( #68 ) ) ;
#440 = CARTESIAN_POINT ( 'NONE',  ( -8.196454954923666500E-018, -0.06692913385827128900, -0.04846817492397601000 ) ) ;
#441 = DIRECTION ( 'NONE',  ( -0.0000000000000000000, -0.0000000000000000000, 1.000000000000000000 ) ) ;
#442 = VECTOR ( 'NONE', #441, 39.37007874015748100 ) ;
#443 = CARTESIAN_POINT ( 'NONE',  ( 0.07238100909783543000, 0.07238100909783568000, 0.03149606299212598400 ) ) ;
#444 = LINE ( 'NONE', #443, #442 ) ;
#445 = APPROVAL_PERSON_ORGANIZATION ( #325, #414, #446 ) ;
#446 = APPROVAL_ROLE ( '' ) ;
#447 = DIRECTION ( 'NONE',  ( 0.0000000000000000000, -1.000000000000000000, 0.0000000000000000000 ) ) ;
#448 = DIRECTION ( 'NONE',  ( -0.0000000000000000000, 5.731934358295344300E-032, 1.000000000000000000 ) ) ;
#449 = CARTESIAN_POINT ( 'NONE',  ( 0.0000000000000000000, 9.112529332238177600E-018, 0.04680741562720509800 ) ) ;
#450 = DIRECTION ( 'NONE',  ( 0.0000000000000000000, 0.0000000000000000000, -1.000000000000000000 ) ) ;
#451 = CYLINDRICAL_SURFACE ( 'NONE', #429, 0.08758927072674044200 ) ;
#452 = AXIS2_PLACEMENT_3D ( 'NONE', #393, #383, #370 ) ;
#453 = DIRECTION ( 'NONE',  ( -0.0000000000000000000, -0.0000000000000000000, 1.000000000000000000 ) ) ;
#454 = CARTESIAN_POINT ( 'NONE',  ( -3.244069492476312400E-016, 1.707404996040113100E-017, 0.03149606299212598400 ) ) ;
#455 = DIRECTION ( 'NONE',  ( -0.0000000000000000000, -0.0000000000000000000, 1.000000000000000000 ) ) ;
#456 = VECTOR ( 'NONE', #455, 39.37007874015748100 ) ;
#457 = AXIS2_PLACEMENT_3D ( 'NONE', #460, #395, #394 ) ;
#458 = CARTESIAN_POINT ( 'NONE',  ( 0.07238100909783565200, -0.07238100909783547200, 0.03149606299212598400 ) ) ;
#459 = LINE ( 'NONE', #458, #456 ) ;
#460 = CARTESIAN_POINT ( 'NONE',  ( -3.244069492476312400E-016, 1.707404996040113100E-017, 0.03149606299212598400 ) ) ;
#461 = FACE_OUTER_BOUND ( 'NONE', #58, .T. ) ;
#462 = DIRECTION ( 'NONE',  ( -0.0000000000000000000, 5.731934358295344300E-032, 1.000000000000000000 ) ) ;
#463 = VECTOR ( 'NONE', #462, 39.37007874015748100 ) ;
#464 = CARTESIAN_POINT ( 'NONE',  ( 1.253575463694140800E-017, 0.1023622047244094500, 0.04960629921259843100 ) ) ;
#465 = LINE ( 'NONE', #464, #463 ) ;
#466 = CIRCLE ( 'NONE', #468, 0.1023622047244094300 ) ;
#467 = CIRCLE ( 'NONE', #469, 0.1023622047244094500 ) ;
#468 = AXIS2_PLACEMENT_3D ( 'NONE', #449, #448, #447 ) ;
#469 = AXIS2_PLACEMENT_3D ( 'NONE', #438, #437, #436 ) ;
#470 = DIRECTION ( 'NONE',  ( 0.0000000000000000000, -1.000000000000000000, 0.0000000000000000000 ) ) ;
#471 = DIRECTION ( 'NONE',  ( -0.0000000000000000000, 5.731934358295344300E-032, 1.000000000000000000 ) ) ;
#472 = CARTESIAN_POINT ( 'NONE',  ( 0.0000000000000000000, 9.112529332238176000E-018, 0.03203448162953569800 ) ) ;
#473 = DIRECTION ( 'NONE',  ( 0.0000000000000000000, -1.000000000000000000, 0.0000000000000000000 ) ) ;
#474 = DIRECTION ( 'NONE',  ( -0.0000000000000000000, 5.731934358295344300E-032, 1.000000000000000000 ) ) ;
#475 = CARTESIAN_POINT ( 'NONE',  ( 0.0000000000000000000, 9.112529332238176000E-018, 0.03203448162953569800 ) ) ;
#476 = AXIS2_PLACEMENT_3D ( 'NONE', #475, #474, #473 ) ;
#477 = CIRCLE ( 'NONE', #415, 0.08758927072674022000 ) ;
#478 = DIRECTION ( 'NONE',  ( 0.0000000000000000000, 1.000000000000000000, 0.0000000000000000000 ) ) ;
#479 = DIRECTION ( 'NONE',  ( -1.000000000000000000, 0.0000000000000000000, 0.0000000000000000000 ) ) ;
#480 = DIRECTION ( 'NONE',  ( 0.0000000000000000000, -1.000000000000000000, 0.0000000000000000000 ) ) ;
#481 = VECTOR ( 'NONE', #480, 39.37007874015748100 ) ;
#482 = CARTESIAN_POINT ( 'NONE',  ( -0.1082677165354330700, 0.006890937360429278200, 0.04680741562720509800 ) ) ;
#483 = LINE ( 'NONE', #482, #481 ) ;
#484 = PLANE ( 'NONE',  #487 ) ;
#485 = LINE ( 'NONE', #544, #543 ) ;
#486 = DIRECTION ( 'NONE',  ( 0.0000000000000000000, 9.941084494565552500E-017, 1.000000000000000000 ) ) ;
#487 = AXIS2_PLACEMENT_3D ( 'NONE', #497, #541, #540 ) ;
#488 = PLANE ( 'NONE',  #494 ) ;
#489 = DIRECTION ( 'NONE',  ( 0.0000000000000000000, 9.941084494565552500E-017, 1.000000000000000000 ) ) ;
#490 = VECTOR ( 'NONE', #489, 39.37007874015748100 ) ;
#491 = CARTESIAN_POINT ( 'NONE',  ( -0.1082677165354330700, 0.006890937360429276500, 0.03607289140996838800 ) ) ;
#492 = LINE ( 'NONE', #491, #490 ) ;
#493 = CC_DESIGN_SECURITY_CLASSIFICATION ( #68, ( #665 ) ) ;
#494 = AXIS2_PLACEMENT_3D ( 'NONE', #572, #562, #486 ) ;
#495 = FACE_OUTER_BOUND ( 'NONE', #237, .T. ) ;
#496 = DIRECTION ( 'NONE',  ( 0.0000000000000000000, 9.941084494565552500E-017, -1.000000000000000000 ) ) ;
#497 = CARTESIAN_POINT ( 'NONE',  ( -0.1023622047244094500, 0.0000000000000000000, 0.03607289140996838800 ) ) ;
#498 = VECTOR ( 'NONE', #496, 39.37007874015748100 ) ;
#499 = CARTESIAN_POINT ( 'NONE',  ( -0.1082677165354330700, -0.006890937360429278200, 0.04680741562720509800 ) ) ;
#500 = LINE ( 'NONE', #499, #498 ) ;
#501 = DIRECTION ( 'NONE',  ( 0.0000000000000000000, -1.000000000000000000, 0.0000000000000000000 ) ) ;
#502 = DIRECTION ( 'NONE',  ( -0.0000000000000000000, 5.731934358295344300E-032, 1.000000000000000000 ) ) ;
#503 = CIRCLE ( 'NONE', #532, 0.06692913385826770900 ) ;
#504 = PRODUCT_RELATED_PRODUCT_CATEGORY ( 'detail', '', ( #728 ) ) ;
#505 = DIRECTION ( 'NONE',  ( 1.000000000000000000, 0.0000000000000000000, 0.0000000000000000000 ) ) ;
#506 = VECTOR ( 'NONE', #505, 39.37007874015748100 ) ;
#507 = CARTESIAN_POINT ( 'NONE',  ( -0.1082677165354330700, -0.006890937360429276500, 0.03607289140996838800 ) ) ;
#508 = CARTESIAN_POINT ( 'NONE',  ( 8.678599364036366000E-018, -0.07086614173228350500, -0.05240518279799175800 ) ) ;
#509 = CIRCLE ( 'NONE', #537, 0.06692913385826770900 ) ;
#510 = DIRECTION ( 'NONE',  ( 0.0000000000000000000, -5.731934358295344300E-032, -1.000000000000000000 ) ) ;
#511 = AXIS2_PLACEMENT_3D ( 'NONE', #552, #551, #550 ) ;
#512 = DIRECTION ( 'NONE',  ( 0.0000000000000000000, 1.000000000000000000, 0.0000000000000000000 ) ) ;
#513 = CARTESIAN_POINT ( 'NONE',  ( 0.0000000000000000000, 0.06692913385827128900, -0.04846817492397601000 ) ) ;
#514 = CARTESIAN_POINT ( 'NONE',  ( 0.0000000000000000000, 9.112529332238177600E-018, 0.04960629921259843100 ) ) ;
#515 = CARTESIAN_POINT ( 'NONE',  ( 0.08758927072674022000, 1.707404996040113700E-017, 0.03203448162953569800 ) ) ;
#516 = FACE_OUTER_BOUND ( 'NONE', #38, .T. ) ;
#517 = CARTESIAN_POINT ( 'NONE',  ( 0.07238100909783543000, 0.07238100909783568000, 0.04680741562720509800 ) ) ;
#518 = DIRECTION ( 'NONE',  ( 0.0000000000000000000, -1.000000000000000000, 0.0000000000000000000 ) ) ;
#519 = DIRECTION ( 'NONE',  ( -0.0000000000000000000, 5.731934358295344300E-032, 1.000000000000000000 ) ) ;
#520 = CARTESIAN_POINT ( 'NONE',  ( 0.0000000000000000000, 9.112529332238173000E-018, -0.05240518279799175800 ) ) ;
#521 = AXIS2_PLACEMENT_3D ( 'NONE', #520, #519, #518 ) ;
#522 = CARTESIAN_POINT ( 'NONE',  ( -0.1023622047244094500, 0.006890937360429276500, 0.03607289140996838800 ) ) ;
#523 = CIRCLE ( 'NONE', #521, 0.1023622047244094300 ) ;
#524 = DIRECTION ( 'NONE',  ( 0.0000000000000000000, 1.000000000000000000, 0.0000000000000000000 ) ) ;
#525 = CYLINDRICAL_SURFACE ( 'NONE', #527, 0.1023622047244094300 ) ;
#526 = CARTESIAN_POINT ( 'NONE',  ( 0.08758927072674010900, 1.707404996040113100E-017, 0.03149606299212598400 ) ) ;
#527 = AXIS2_PLACEMENT_3D ( 'NONE', #514, #574, #573 ) ;
#528 = DIRECTION ( 'NONE',  ( 0.0000000000000000000, -1.000000000000000000, 0.0000000000000000000 ) ) ;
#529 = DIRECTION ( 'NONE',  ( -0.0000000000000000000, 5.731934358295344300E-032, 1.000000000000000000 ) ) ;
#530 = CARTESIAN_POINT ( 'NONE',  ( 0.07238100909783543000, 0.07238100909783568000, 0.03149606299212598400 ) ) ;
#531 = SPHERICAL_SURFACE ( 'NONE', #538, 1.968503937007874100 ) ;
#532 = AXIS2_PLACEMENT_3D ( 'NONE', #570, #502, #501 ) ;
#533 = DIRECTION ( 'NONE',  ( 8.659560562354969800E-017, -0.7071067811865505700, -0.7071067811865444600 ) ) ;
#534 = VECTOR ( 'NONE', #533, 39.37007874015748100 ) ;
#535 = CARTESIAN_POINT ( 'NONE',  ( 8.196454954923230500E-018, -0.06692913385826770900, -0.04846817492397599600 ) ) ;
#536 = LINE ( 'NONE', #535, #534 ) ;
#537 = AXIS2_PLACEMENT_3D ( 'NONE', #555, #529, #528 ) ;
#538 = AXIS2_PLACEMENT_3D ( 'NONE', #560, #548, #524 ) ;
#539 = FACE_OUTER_BOUND ( 'NONE', #107, .T. ) ;
#540 = DIRECTION ( 'NONE',  ( 0.0000000000000000000, 0.0000000000000000000, 1.000000000000000000 ) ) ;
#541 = DIRECTION ( 'NONE',  ( -1.000000000000000000, 0.0000000000000000000, 0.0000000000000000000 ) ) ;
#542 = DIRECTION ( 'NONE',  ( 0.0000000000000000000, 9.941084494565552500E-017, 1.000000000000000000 ) ) ;
#543 = VECTOR ( 'NONE', #542, 39.37007874015748100 ) ;
#544 = CARTESIAN_POINT ( 'NONE',  ( -0.1023622047244094500, 0.006890937360429276500, 0.03607289140996838800 ) ) ;
#545 = FACE_OUTER_BOUND ( 'NONE', #281, .T. ) ;
#546 = CONICAL_SURFACE ( 'NONE', #559, 0.1023622047244094300, 0.7853981633974419500 ) ;
#547 = CARTESIAN_POINT ( 'NONE',  ( 0.0000000000000000000, 9.112529332238173000E-018, -0.04846817492397599600 ) ) ;
#548 = DIRECTION ( 'NONE',  ( -1.000000000000000000, 0.0000000000000000000, 0.0000000000000000000 ) ) ;
#549 = AXIS2_PLACEMENT_3D ( 'NONE', #547, #510, #512 ) ;
#550 = DIRECTION ( 'NONE',  ( 0.0000000000000000000, -1.000000000000000000, 0.0000000000000000000 ) ) ;
#551 = DIRECTION ( 'NONE',  ( -0.0000000000000000000, 5.731934358295344300E-032, 1.000000000000000000 ) ) ;
#552 = CARTESIAN_POINT ( 'NONE',  ( 0.0000000000000000000, 9.112529332238176000E-018, 0.03203448162953569800 ) ) ;
#553 = CIRCLE ( 'NONE', #511, 0.08758927072674022000 ) ;
#554 = CONICAL_SURFACE ( 'NONE', #549, 0.06692913385826770900, 0.7853981633974526100 ) ;
#555 = CARTESIAN_POINT ( 'NONE',  ( 0.0000000000000000000, 9.112529332238173000E-018, -0.04846817492397599600 ) ) ;
#556 = DIRECTION ( 'NONE',  ( 0.0000000000000000000, -1.000000000000000000, 0.0000000000000000000 ) ) ;
#557 = DIRECTION ( 'NONE',  ( -0.0000000000000000000, 5.731934358295344300E-032, 1.000000000000000000 ) ) ;
#558 = CARTESIAN_POINT ( 'NONE',  ( 0.0000000000000000000, 9.112529332238177600E-018, 0.04680741562720509800 ) ) ;
#559 = AXIS2_PLACEMENT_3D ( 'NONE', #558, #557, #556 ) ;
#560 = CARTESIAN_POINT ( 'NONE',  ( 0.0000000000000000000, 0.0000000000000000000, 1.918897637795275800 ) ) ;
#561 = FACE_OUTER_BOUND ( 'NONE', #123, .T. ) ;
#562 = DIRECTION ( 'NONE',  ( 0.0000000000000000000, 1.000000000000000000, -9.941084494565552500E-017 ) ) ;
#563 = DIRECTION ( 'NONE',  ( 0.0000000000000000000, 0.0000000000000000000, 1.000000000000000000 ) ) ;
#564 = DIRECTION ( 'NONE',  ( 1.000000000000000000, -0.0000000000000000000, -0.0000000000000000000 ) ) ;
#565 = CARTESIAN_POINT ( 'NONE',  ( -0.1023622047244094500, 0.0000000000000000000, 0.03607289140996838800 ) ) ;
#566 = AXIS2_PLACEMENT_3D ( 'NONE', #565, #564, #563 ) ;
#567 = CIRCLE ( 'NONE', #566, 0.006890937360429273900 ) ;
#568 = CARTESIAN_POINT ( 'NONE',  ( -0.1023622047244094500, 0.0000000000000000000, 0.02918195404953911200 ) ) ;
#569 = CARTESIAN_POINT ( 'NONE',  ( -0.1082677165354330700, 0.006890937360429276500, 0.03607289140996838800 ) ) ;
#570 = CARTESIAN_POINT ( 'NONE',  ( 0.0000000000000000000, 9.112529332238173000E-018, -0.04846817492397599600 ) ) ;
#571 = LINE ( 'NONE', #507, #506 ) ;
#572 = CARTESIAN_POINT ( 'NONE',  ( -0.1082677165354330700, 0.006890937360429276500, 0.03607289140996838800 ) ) ;
#573 = DIRECTION ( 'NONE',  ( 0.0000000000000000000, -1.000000000000000000, 0.0000000000000000000 ) ) ;
#574 = DIRECTION ( 'NONE',  ( -0.0000000000000000000, 5.731934358295344300E-032, 1.000000000000000000 ) ) ;
#575 = CARTESIAN_POINT ( 'NONE',  ( 0.07238100909783543000, 0.07238100909783568000, 0.03149606299212598400 ) ) ;
#576 = LINE ( 'NONE', #726, #719 ) ;
#577 = DIRECTION ( 'NONE',  ( 0.0000000000000000000, 0.0000000000000000000, 1.000000000000000000 ) ) ;
#578 = DIRECTION ( 'NONE',  ( 1.000000000000000000, -0.0000000000000000000, -0.0000000000000000000 ) ) ;
#579 = CARTESIAN_POINT ( 'NONE',  ( -0.1082677165354330700, 0.0000000000000000000, 0.03607289140996838800 ) ) ;
#580 = CIRCLE ( 'NONE', #634, 0.006890937360429273900 ) ;
#581 = FACE_OUTER_BOUND ( 'NONE', #185, .T. ) ;
#582 = CARTESIAN_POINT ( 'NONE',  ( 0.0000000000000000000, 9.112529332238177600E-018, 0.04680741562720509800 ) ) ;
#583 = DIRECTION ( 'NONE',  ( 0.0000000000000000000, 0.0000000000000000000, -1.000000000000000000 ) ) ;
#584 = AXIS2_PLACEMENT_3D ( 'NONE', #575, #723, #722 ) ;
#585 = AXIS2_PLACEMENT_3D ( 'NONE', #594, #646, #645 ) ;
#586 = DIRECTION ( 'NONE',  ( 1.000000000000000000, 0.0000000000000000000, 0.0000000000000000000 ) ) ;
#587 = VECTOR ( 'NONE', #586, 39.37007874015748100 ) ;
#588 = CARTESIAN_POINT ( 'NONE',  ( -0.1082677165354330700, -0.006890937360429278200, 0.04680741562720509800 ) ) ;
#589 = LINE ( 'NONE', #588, #587 ) ;
#590 = CARTESIAN_POINT ( 'NONE',  ( 0.0000000000000000000, 0.07086614173228351900, -0.05240518279799175100 ) ) ;
#591 = FACE_OUTER_BOUND ( 'NONE', #186, .T. ) ;
#592 = AXIS2_PLACEMENT_3D ( 'NONE', #649, #597, #596 ) ;
#593 = AXIS2_PLACEMENT_3D ( 'NONE', #653, #652, #651 ) ;
#594 = CARTESIAN_POINT ( 'NONE',  ( 0.0000000000000000000, 9.112529332238173000E-018, -0.04846817492397599600 ) ) ;
#595 = CARTESIAN_POINT ( 'NONE',  ( -0.1082677165354330700, 0.006890937360429278200, 0.04680741562720509800 ) ) ;
#596 = DIRECTION ( 'NONE',  ( 0.0000000000000000000, 0.0000000000000000000, -1.000000000000000000 ) ) ;
#597 = DIRECTION ( 'NONE',  ( 1.000000000000000000, 0.0000000000000000000, 0.0000000000000000000 ) ) ;
#598 = FACE_BOUND ( 'NONE', #297, .T. ) ;
#599 = FACE_OUTER_BOUND ( 'NONE', #244, .T. ) ;
#600 = FACE_OUTER_BOUND ( 'NONE', #24, .T. ) ;
#601 = PERSON_AND_ORGANIZATION ( #727, #602 ) ;
#602 = ORGANIZATION ( 'UNSPECIFIED', 'UNSPECIFIED', '' ) ;
#603 = FACE_OUTER_BOUND ( 'NONE', #356, .T. ) ;
#604 = DIRECTION ( 'NONE',  ( 1.000000000000000000, 0.0000000000000000000, 0.0000000000000000000 ) ) ;
#605 = DIRECTION ( 'NONE',  ( -0.0000000000000000000, 0.0000000000000000000, 1.000000000000000000 ) ) ;
#606 = CARTESIAN_POINT ( 'NONE',  ( -0.1082677165354330700, 0.006890937360429278200, 0.04680741562720509800 ) ) ;
#607 = LINE ( 'NONE', #676, #675 ) ;
#608 = AXIS2_PLACEMENT_3D ( 'NONE', #611, #669, #668 ) ;
#609 = DIRECTION ( 'NONE',  ( 0.0000000000000000000, -1.000000000000000000, 0.0000000000000000000 ) ) ;
#610 = FACE_OUTER_BOUND ( 'NONE', #338, .T. ) ;
#611 = CARTESIAN_POINT ( 'NONE',  ( -2.561107494060246800E-017, -4.268512490100411300E-018, 0.03149606299212598400 ) ) ;
#612 = CARTESIAN_POINT ( 'NONE',  ( -0.1023622047244094500, -0.006890937360429276500, 0.03607289140996838800 ) ) ;
#613 = CONICAL_SURFACE ( 'NONE', #585, 0.06692913385826770900, 0.7853981633974526100 ) ;
#614 = CONICAL_SURFACE ( 'NONE', #633, 0.1023622047244094300, 0.7853981633974419500 ) ;
#615 = AXIS2_PLACEMENT_3D ( 'NONE', #590, #631, #630 ) ;
#616 = DIRECTION ( 'NONE',  ( 1.000000000000000000, 0.0000000000000000000, 0.0000000000000000000 ) ) ;
#617 = VECTOR ( 'NONE', #616, 39.37007874015748100 ) ;
#618 = CARTESIAN_POINT ( 'NONE',  ( -0.1082677165354330700, 0.0000000000000000000, 0.02918195404953911200 ) ) ;
#619 = LINE ( 'NONE', #618, #617 ) ;
#620 = FACE_OUTER_BOUND ( 'NONE', #260, .T. ) ;
#621 = UNCERTAINTY_MEASURE_WITH_UNIT (LENGTH_MEASURE( 1.000000000000000100E-005 ), #624, 'distance_accuracy_value', 'NONE');
#622 =( NAMED_UNIT ( * ) SI_UNIT ( $, .STERADIAN. ) SOLID_ANGLE_UNIT ( ) );
#623 =( NAMED_UNIT ( * ) PLANE_ANGLE_UNIT ( ) SI_UNIT ( $, .RADIAN. ) );
#624 =( CONVERSION_BASED_UNIT ( 'INCH', #625 ) LENGTH_UNIT ( ) NAMED_UNIT ( #626 ) );
#625 = LENGTH_MEASURE_WITH_UNIT ( LENGTH_MEASURE( 0.02539999999999999900 ), #673 );
#626 = DIMENSIONAL_EXPONENTS ( 1.000000000000000000, 0.0000000000000000000, 0.0000000000000000000, 0.0000000000000000000, 0.0000000000000000000, 0.0000000000000000000, 0.0000000000000000000 ) ;
#627 = DIRECTION ( 'NONE',  ( -0.0000000000000000000, -0.0000000000000000000, 1.000000000000000000 ) ) ;
#628 = VECTOR ( 'NONE', #627, 39.37007874015748100 ) ;
#629 = CARTESIAN_POINT ( 'NONE',  ( -0.1082677165354330700, 0.0000000000000000000, 0.03607289140996838800 ) ) ;
#630 = DIRECTION ( 'NONE',  ( 0.0000000000000000000, -1.000000000000000000, 5.731934358295344300E-032 ) ) ;
#631 = DIRECTION ( 'NONE',  ( -0.0000000000000000000, 5.731934358295344300E-032, 1.000000000000000000 ) ) ;
#632 = CIRCLE ( 'NONE', #711, 0.1023622047244094300 ) ;
#633 = AXIS2_PLACEMENT_3D ( 'NONE', #582, #717, #609 ) ;
#634 = AXIS2_PLACEMENT_3D ( 'NONE', #579, #578, #577 ) ;
#635 = DIRECTION ( 'NONE',  ( 1.000000000000000000, 0.0000000000000000000, 0.0000000000000000000 ) ) ;
#636 = DIRECTION ( 'NONE',  ( 0.0000000000000000000, 0.0000000000000000000, 1.000000000000000000 ) ) ;
#637 = DIRECTION ( 'NONE',  ( 1.000000000000000000, -0.0000000000000000000, -0.0000000000000000000 ) ) ;
#638 = CARTESIAN_POINT ( 'NONE',  ( -0.1082677165354330700, 0.0000000000000000000, 0.03607289140996838800 ) ) ;
#639 = AXIS2_PLACEMENT_3D ( 'NONE', #638, #637, #636 ) ;
#640 = APPLICATION_CONTEXT ( 'configuration controlled 3d designs of mechanical parts and assemblies' ) ;
#641 = DIRECTION ( 'NONE',  ( 0.0000000000000000000, 0.0000000000000000000, 1.000000000000000000 ) ) ;
#642 = CARTESIAN_POINT ( 'NONE',  ( 0.0000000000000000000, 0.0000000000000000000, 0.0000000000000000000 ) ) ;
#643 = DIRECTION ( 'NONE',  ( 1.000000000000000000, 0.0000000000000000000, 0.0000000000000000000 ) ) ;
#644 = AXIS2_PLACEMENT_3D ( 'NONE', #642, #641, #643 ) ;
#645 = DIRECTION ( 'NONE',  ( 0.0000000000000000000, 1.000000000000000000, 0.0000000000000000000 ) ) ;
#646 = DIRECTION ( 'NONE',  ( 0.0000000000000000000, -5.731934358295344300E-032, -1.000000000000000000 ) ) ;
#647 = PLANE ( 'NONE',  #615 ) ;
#648 = PLANE ( 'NONE',  #584 ) ;
#649 = CARTESIAN_POINT ( 'NONE',  ( -0.1082677165354330700, 0.0000000000000000000, 0.03607289140996838800 ) ) ;
#650 = CYLINDRICAL_SURFACE ( 'NONE', #592, 0.006890937360429278200 ) ;
#651 = DIRECTION ( 'NONE',  ( 1.000000000000000000, 0.0000000000000000000, 0.0000000000000000000 ) ) ;
#652 = DIRECTION ( 'NONE',  ( -0.0000000000000000000, -0.0000000000000000000, 1.000000000000000000 ) ) ;
#653 = CARTESIAN_POINT ( 'NONE',  ( -3.244069492476312400E-016, 1.707404996040113100E-017, 0.03149606299212598400 ) ) ;
#654 = FACE_OUTER_BOUND ( 'NONE', #13, .T. ) ;
#655 = CYLINDRICAL_SURFACE ( 'NONE', #706, 0.006890937360429278200 ) ;
#656 = DATE_AND_TIME ( #657, #658 ) ;
#657 = CALENDAR_DATE ( 2013, 24, 7 ) ;
#658 = LOCAL_TIME ( 11, 25, 24.00000000000000000, #659 ) ;
#659 = COORDINATED_UNIVERSAL_TIME_OFFSET ( 5, 0, .BEHIND. ) ;
#660 = APPROVAL_PERSON_ORGANIZATION ( #664, #662, #661 ) ;
#661 = APPROVAL_ROLE ( '' ) ;
#662 = APPROVAL ( #663, 'UNSPECIFIED' ) ;
#663 = APPROVAL_STATUS ( 'not_yet_approved' ) ;
#664 = PERSON_AND_ORGANIZATION ( #727, #602 ) ;
#665 = PRODUCT_DEFINITION_FORMATION_WITH_SPECIFIED_SOURCE ( 'ANY', '', #728, .NOT_KNOWN. ) ;
#666 = CC_DESIGN_DATE_AND_TIME_ASSIGNMENT ( #678, #667, ( #696 ) ) ;
#667 = DATE_TIME_ROLE ( 'creation_date' ) ;
#668 = DIRECTION ( 'NONE',  ( -1.000000000000000000, 0.0000000000000000000, 0.0000000000000000000 ) ) ;
#669 = DIRECTION ( 'NONE',  ( -0.0000000000000000000, 0.0000000000000000000, -1.000000000000000000 ) ) ;
#670 = CARTESIAN_POINT ( 'NONE',  ( 0.06193496729006226600, 0.06193496729006247500, 0.03149606299212598400 ) ) ;
#671 = LINE ( 'NONE', #670, #628 ) ;
#672 = PLANE ( 'NONE',  #608 ) ;
#673 =( LENGTH_UNIT ( ) NAMED_UNIT ( * ) SI_UNIT ( $, .METRE. ) );
#674 = DIRECTION ( 'NONE',  ( 0.0000000000000000000, -1.000000000000000000, 0.0000000000000000000 ) ) ;
#675 = VECTOR ( 'NONE', #674, 39.37007874015748100 ) ;
#676 = CARTESIAN_POINT ( 'NONE',  ( -0.1023622047244094500, 0.006890937360429278200, 0.04680741562720509800 ) ) ;
#677 = CYLINDRICAL_SURFACE ( 'NONE', #593, 0.08758927072674044200 ) ;
#678 = DATE_AND_TIME ( #679, #680 ) ;
#679 = CALENDAR_DATE ( 2013, 24, 7 ) ;
#680 = LOCAL_TIME ( 11, 25, 24.00000000000000000, #681 ) ;
#681 = COORDINATED_UNIVERSAL_TIME_OFFSET ( 5, 0, .BEHIND. ) ;
#682 = CC_DESIGN_PERSON_AND_ORGANIZATION_ASSIGNMENT ( #684, #683, ( #696 ) ) ;
#683 = PERSON_AND_ORGANIZATION_ROLE ( 'creator' ) ;
#684 = PERSON_AND_ORGANIZATION ( #727, #602 ) ;
#685 = CC_DESIGN_APPROVAL ( #693, ( #696 ) ) ;
#686 = APPROVAL_DATE_TIME ( #687, #693 ) ;
#687 = DATE_AND_TIME ( #688, #689 ) ;
#688 = CALENDAR_DATE ( 2013, 24, 7 ) ;
#689 = LOCAL_TIME ( 11, 25, 24.00000000000000000, #690 ) ;
#690 = COORDINATED_UNIVERSAL_TIME_OFFSET ( 5, 0, .BEHIND. ) ;
#691 = APPROVAL_PERSON_ORGANIZATION ( #695, #693, #692 ) ;
#692 = APPROVAL_ROLE ( '' ) ;
#693 = APPROVAL ( #694, 'UNSPECIFIED' ) ;
#694 = APPROVAL_STATUS ( 'not_yet_approved' ) ;
#695 = PERSON_AND_ORGANIZATION ( #727, #602 ) ;
#696 = PRODUCT_DEFINITION ( 'UNKNOWN', '', #665, #697 ) ;
#697 = DESIGN_CONTEXT ( 'detailed design', #699, 'design' ) ;
#698 = APPLICATION_PROTOCOL_DEFINITION ( 'international standard', 'config_control_design', 1994, #699 ) ;
#699 = APPLICATION_CONTEXT ( 'configuration controlled 3d designs of mechanical parts and assemblies' ) ;
#700 = CC_DESIGN_PERSON_AND_ORGANIZATION_ASSIGNMENT ( #601, #701, ( #728 ) ) ;
#701 = PERSON_AND_ORGANIZATION_ROLE ( 'design_owner' ) ;
#702 = PLANE ( 'NONE',  #715 ) ;
#703 = CARTESIAN_POINT ( 'NONE',  ( -0.1082677165354330700, 0.0000000000000000000, 0.02918195404953911200 ) ) ;
#704 = CIRCLE ( 'NONE', #639, 0.006890937360429273900 ) ;
#705 = FACE_OUTER_BOUND ( 'NONE', #27, .T. ) ;
#706 = AXIS2_PLACEMENT_3D ( 'NONE', #629, #635, #583 ) ;
#707 = FACE_OUTER_BOUND ( 'NONE', #157, .T. ) ;
#708 = DIRECTION ( 'NONE',  ( 0.0000000000000000000, -1.000000000000000000, 0.0000000000000000000 ) ) ;
#709 = DIRECTION ( 'NONE',  ( -0.0000000000000000000, 5.731934358295344300E-032, 1.000000000000000000 ) ) ;
#710 = CARTESIAN_POINT ( 'NONE',  ( 0.0000000000000000000, 9.112529332238173000E-018, -0.05240518279799175800 ) ) ;
#711 = AXIS2_PLACEMENT_3D ( 'NONE', #710, #709, #708 ) ;
#712 = DIRECTION ( 'NONE',  ( 0.0000000000000000000, 0.0000000000000000000, 1.000000000000000000 ) ) ;
#713 = DIRECTION ( 'NONE',  ( -1.000000000000000000, 0.0000000000000000000, 0.0000000000000000000 ) ) ;
#714 = CARTESIAN_POINT ( 'NONE',  ( -0.1082677165354330700, 0.0000000000000000000, 0.03607289140996838800 ) ) ;
#715 = AXIS2_PLACEMENT_3D ( 'NONE', #714, #713, #712 ) ;
#716 = CARTESIAN_POINT ( 'NONE',  ( -0.1023622047244094500, 0.006890937360429278200, 0.04680741562720509800 ) ) ;
#717 = DIRECTION ( 'NONE',  ( -0.0000000000000000000, 5.731934358295344300E-032, 1.000000000000000000 ) ) ;
#718 = DIRECTION ( 'NONE',  ( 0.7071067811865477900, -0.7071067811865472400, 0.0000000000000000000 ) ) ;
#719 = VECTOR ( 'NONE', #718, 39.37007874015748100 ) ;
#720 = PLANE ( 'NONE',  #725 ) ;
#721 = CARTESIAN_POINT ( 'NONE',  ( -0.1082677165354330700, -0.006890937360429276500, 0.03607289140996838800 ) ) ;
#722 = DIRECTION ( 'NONE',  ( -0.7071067811865461300, -0.7071067811865489100, 0.0000000000000000000 ) ) ;
#723 = DIRECTION ( 'NONE',  ( -0.7071067811865489100, 0.7071067811865461300, 0.0000000000000000000 ) ) ;
#724 = CARTESIAN_POINT ( 'NONE',  ( -0.1082677165354330700, -0.006890937360429278200, 0.04680741562720509800 ) ) ;
#725 = AXIS2_PLACEMENT_3D ( 'NONE', #606, #605, #604 ) ;
#726 = CARTESIAN_POINT ( 'NONE',  ( 0.06193496729006244700, -0.06193496729006228700, 0.03149606299212598400 ) ) ;
#727 = PERSON ( 'UNSPECIFIED', 'UNSPECIFIED', 'UNSPECIFIED', ('UNSPECIFIED'), ('UNSPECIFIED'), ('UNSPECIFIED') ) ;
#728 = PRODUCT ( '23092-E0W', '23092-E0W', '', ( #729 ) ) ;
#729 = MECHANICAL_CONTEXT ( 'NONE', #640, 'mechanical' ) ;
#730 = APPLICATION_PROTOCOL_DEFINITION ( 'international standard', 'config_control_design', 1994, #640 ) ;
#731 = ADVANCED_BREP_SHAPE_REPRESENTATION ( '23092-E0W', ( #80, #265, #644 ), #732 ) ;
#732 =( GEOMETRIC_REPRESENTATION_CONTEXT ( 3 ) GLOBAL_UNCERTAINTY_ASSIGNED_CONTEXT ( ( #621 ) ) GLOBAL_UNIT_ASSIGNED_CONTEXT ( ( #624, #623, #622 ) ) REPRESENTATION_CONTEXT ( 'NONE', 'WORKASPACE' ) );
#733 = PRODUCT_DEFINITION_SHAPE ( 'NONE', 'NONE',  #696 ) ;
#734 = SHAPE_DEFINITION_REPRESENTATION ( #733, #731 ) ;
ENDSEC;
END-ISO-10303-21;
